# xmcd
#
# Track frame offsets: 
#        150
#        35516
#        65052
#        85555
#        113291
#        141799
#        166860
#        187415
#        212224
#        246513
#        274445
#        291350
#        308729
#
# Disc length: 4436 seconds
#
# Revision: 0
# Processed by: cddbd v1.5.2PL0 Copyright (c) Steve Scherf et al.
# Submitted via: ExactAudioCopy v0.99pb4
#
DISCID=c711520d
DTITLE=Various Artist - Lucerne Blues Festival CD2
DYEAR=1900
DGENRE=Blues
TTITLE0=Rude Groove
TTITLE1=Don't Let The Devil Ride
TTITLE2=Who Your Real Friends Are
TTITLE3=Handyman
TTITLE4=My Little Machine
TTITLE5=Mr.Lucky
TTITLE6=Born All Over
TTITLE7=Put It In The Pocket
TTITLE8=I Whish You Would
TTITLE9=Absolution
TTITLE10=Fine Lookin Woman
TTITLE11=Ooh Mademoiselle
TTITLE12=Somebody Pick Up My Pieces
EXTD=
EXTT0=
EXTT1=
EXTT2=
EXTT3=
EXTT4=
EXTT5=
EXTT6=
EXTT7=
EXTT8=
EXTT9=
EXTT10=
EXTT11=
EXTT12=
PLAYORDER=
